<?xml version="1.0" standalone="no"?>
<!DOCTYPE svg PUBLIC "-//W3C//DTD SVG 20010904//EN"
 "http://www.w3.org/TR/2001/REC-SVG-20010904/DTD/svg10.dtd">
<svg version="1.0" xmlns="http://www.w3.org/2000/svg"
 width="619.000000pt" height="619.000000pt" viewBox="0 0 619.000000 619.000000"
 preserveAspectRatio="xMidYMid meet">
<metadata>
Created by potrace 1.14, written by Peter Selinger 2001-2017
</metadata>
<g transform="translate(0.000000,619.000000) scale(0.100000,-0.100000)"
fill="#000000" stroke="none">
<path d="M2167 5434 c-2 -2 -20 -6 -41 -10 -21 -3 -46 -7 -55 -9 -124 -27
-176 -38 -226 -51 -33 -9 -67 -17 -75 -19 -154 -35 -554 -175 -760 -267 -65
-30 -67 -32 -157 -173 -181 -284 -348 -603 -469 -898 -45 -107 -104 -263 -108
-282 -1 -5 -16 -53 -34 -105 -80 -244 -159 -589 -188 -820 -2 -19 -6 -48 -8
-65 -3 -16 -8 -57 -11 -90 -3 -33 -8 -74 -10 -91 -28 -202 -21 -915 10 -1010
3 -9 358 -254 368 -254 2 0 45 -25 96 -55 264 -160 637 -328 969 -437 94 -31
125 -38 136 -29 37 31 293 440 321 512 4 11 -5 20 -32 32 -21 9 -72 30 -113
48 -41 17 -141 65 -223 107 -164 85 -159 74 -70 142 l48 36 115 -49 c225 -96
536 -190 765 -233 269 -49 380 -59 685 -59 256 0 352 6 510 31 52 8 111 17
130 20 28 4 138 28 230 49 171 39 440 131 629 215 l64 28 26 -24 c14 -14 41
-34 59 -45 17 -11 32 -24 32 -27 0 -15 -305 -169 -437 -221 -65 -26 -80 -36
-76 -49 30 -79 302 -508 329 -519 17 -6 305 90 449 152 381 162 629 295 947
507 154 104 167 115 172 144 25 131 26 850 2 1004 -3 14 -7 54 -10 90 -30 325
-165 897 -277 1170 -10 25 -30 77 -44 115 -27 71 -30 79 -81 195 -69 160 -235
478 -326 625 -122 196 -190 291 -215 302 -16 6 -100 40 -188 76 -207 83 -512
183 -680 222 -170 40 -265 59 -342 71 l-43 6 -81 -166 c-63 -130 -85 -166 -98
-162 -9 3 -45 8 -81 12 -36 4 -76 8 -90 10 -38 5 -157 15 -230 19 -82 6 -530
6 -590 0 -25 -2 -76 -6 -115 -10 -38 -3 -87 -8 -107 -10 -21 -3 -57 -7 -80
-10 -24 -3 -54 -8 -68 -10 -23 -5 -30 4 -105 157 -79 159 -81 163 -113 164
-17 1 -33 0 -35 -2z m47 -1970 c157 -51 267 -148 346 -304 72 -141 84 -349 30
-506 -67 -193 -219 -342 -397 -388 -263 -69 -539 97 -639 384 -82 234 -25 502
143 673 136 140 346 197 517 141z m2066 -6 c180 -58 325 -219 377 -418 22 -86
22 -254 0 -336 -44 -161 -129 -286 -251 -365 -214 -140 -469 -111 -652 75
-130 133 -191 297 -181 491 9 171 67 306 182 420 91 91 182 139 285 152 25 3
46 7 48 8 10 9 137 -9 192 -27z"/>
</g>
</svg>
